999
Inkscape export via OpenSCAD DXF Export
  0
SECTION
  2
HEADER
  9
$ACADVER
  1
AC1014
  9
$HANDSEED
  5
FFFF
  9
$MEASUREMENT
 70
     1
  0
ENDSEC
  0
SECTION
  2
TABLES
  0
TABLE
  2
VPORT
  5
8
330
0
100
AcDbSymbolTable
 70
     4
  0
VPORT
  5
2E
330
8
100
AcDbSymbolTableRecord
100
AcDbViewportTableRecord
  2
*ACTIVE
 70
     0
 10
0.0
 20
0.0
 11
1.0
 21
1.0
 12
210.0
 22
148.5
 13
0.0
 23
0.0
 14
10.0
 24
10.0
 15
10.0
 25
10.0
 16
0.0
 26
0.0
 36
1.0
 17
0.0
 27
0.0
 37
0.0
 40
341.0
 41
1.24
 42
50.0
 43
0.0
 44
0.0
 50
0.0
 51
0.0
 71
     0
 72
   100
 73
     1
 74
     3
 75
     0
 76
     0
 77
     0
 78
     0
  0
ENDTAB
  0
TABLE
  2
LTYPE
  5
5
330
0
100
AcDbSymbolTable
 70
     1
  0
LTYPE
  5
14
330
5
100
AcDbSymbolTableRecord
100
AcDbLinetypeTableRecord
  2
BYBLOCK
 70
     0
  3

 72
    65
 73
     0
 40
0.0
  0
LTYPE
  5
15
330
5
100
AcDbSymbolTableRecord
100
AcDbLinetypeTableRecord
  2
BYLAYER
 70
     0
  3

 72
    65
 73
     0
 40
0.0
  0
LTYPE
  5
16
330
5
100
AcDbSymbolTableRecord
100
AcDbLinetypeTableRecord
  2
CONTINUOUS
 70
     0
  3
Solid line
 72
    65
 73
     0
 40
0.0
  0
ENDTAB
  0
TABLE
0
TABLE
2
LAYER
5
2
330
0
100
AcDbSymbolTable
70
1
0
LAYER
5
10
330
2
100
AcDbSymbolTableRecord
100
AcDbLayerTableRecord
2
Layer_1
70
0
62
7
6
CONTINUOUS
0
ENDTAB
0
ENDSEC
  0
ENDTAB
  0
TABLE
  2
STYLE
  5
3
330
0
100
AcDbSymbolTable
 70
     1
  0
STYLE
  5
11
330
3
100
AcDbSymbolTableRecord
100
AcDbTextStyleTableRecord
  2
STANDARD
 70
     0
 40
0.0
 41
1.0
 50
0.0
 71
     0
 42
2.5
  3
txt
  4

  0
ENDTAB
  0
TABLE
  2
VIEW
  5
6
330
0
100
AcDbSymbolTable
 70
     0
  0
ENDTAB
  0
TABLE
  2
UCS
  5
7
330
0
100
AcDbSymbolTable
 70
     0
  0
ENDTAB
  0
TABLE
  2
APPID
  5
9
330
0
100
AcDbSymbolTable
 70
     2
  0
APPID
  5
12
330
9
100
AcDbSymbolTableRecord
100
AcDbRegAppTableRecord
  2
ACAD
 70
     0
  0
ENDTAB
  0
TABLE
  2
DIMSTYLE
  5
A
330
0
100
AcDbSymbolTable
 70
     1
  0
DIMSTYLE
105
27
330
A
100
AcDbSymbolTableRecord
100
AcDbDimStyleTableRecord
  2
ISO-25
 70
     0
  3

  4

  5

  6

  7

 40
1.0
 41
2.5
 42
0.625
 43
3.75
 44
1.25
 45
0.0
 46
0.0
 47
0.0
 48
0.0
140
2.5
141
2.5
142
0.0
143
0.03937007874016
144
1.0
145
0.0
146
1.0
147
0.625
 71
     0
 72
     0
 73
     0
 74
     0
 75
     0
 76
     0
 77
     1
 78
     8
170
     0
171
     3
172
     1
173
     0
174
     0
175
     0
176
     0
177
     0
178
     0
270
     2
271
     2
272
     2
273
     2
274
     3
340
11
275
     0
280
     0
281
     0
282
     0
283
     0
284
     8
285
     0
286
     0
287
     3
288
     0
  0
ENDTAB
  0
TABLE
  2
BLOCK_RECORD
  5
1
330
0
100
AcDbSymbolTable
 70
     1
  0
BLOCK_RECORD
  5
1F
330
1
100
AcDbSymbolTableRecord
100
AcDbBlockTableRecord
  2
*MODEL_SPACE
  0
BLOCK_RECORD
  5
1B
330
1
100
AcDbSymbolTableRecord
100
AcDbBlockTableRecord
  2
*PAPER_SPACE
  0
ENDTAB
  0
ENDSEC
  0
SECTION
  2
BLOCKS
  0
BLOCK
  5
20
330
1F
100
AcDbEntity
  8
0
100
AcDbBlockBegin
  2
*MODEL_SPACE
 70
     0
 10
0.0
 20
0.0
 30
0.0
  3
*MODEL_SPACE
  1

  0
ENDBLK
  5
21
330
1F
100
AcDbEntity
  8
0
100
AcDbBlockEnd
  0
BLOCK
  5
1C
330
1B
100
AcDbEntity
 67
     1
  8
0
100
AcDbBlockBegin
  2
*PAPER_SPACE
  1

  0
ENDBLK
  5
1D
330
1B
100
AcDbEntity
 67
     1
  8
0
100
AcDbBlockEnd
  0
ENDSEC
  0
SECTION
  2
ENTITIES
0
DIMENSION
5
83
100
AcDbEntity
62
256
370
-1
6
ByLayer
1
total_width
3
Standard
70
0
71
5
72
1
41
1.0
100
AcDbAlignedDimension
13
0.136376
23
0.000000
33
0.0
14
78.530430
24
0.000000
34
0.0
50
0.000000
100
AcDbRotatedDimension
0
DIMENSION
5
83
100
AcDbEntity
62
256
370
-1
6
ByLayer
1
total_minx
3
Standard
70
0
71
5
72
1
41
1.0
100
AcDbAlignedDimension
13
0.136376
23
0.000000
33
0.0
14
0.000000
24
0.000000
34
0.0
50
0.000000
100
AcDbRotatedDimension
0
DIMENSION
5
83
100
AcDbEntity
62
256
370
-1
6
ByLayer
1
total_maxx
3
Standard
70
0
71
5
72
1
41
1.0
100
AcDbAlignedDimension
13
0.000000
23
0.000000
33
0.0
14
78.530430
24
0.000000
34
0.0
50
0.000000
100
AcDbRotatedDimension
0
DIMENSION
5
83
100
AcDbEntity
62
256
370
-1
6
ByLayer
1
total_height
3
Standard
70
0
71
5
72
1
41
1.0
100
AcDbAlignedDimension
13
0.000000
23
-0.240285
33
0.0
14
0.000000
24
66.404218
34
0.0
50
90.000000
100
AcDbRotatedDimension
0
DIMENSION
5
83
100
AcDbEntity
62
256
370
-1
6
ByLayer
1
total_miny
3
Standard
70
0
71
5
72
1
41
1.0
100
AcDbAlignedDimension
13
-0.240285
23
0.000000
33
0.0
14
0.000000
24
0.000000
34
0.0
50
0.000000
100
AcDbRotatedDimension
0
DIMENSION
5
83
100
AcDbEntity
62
256
370
-1
6
ByLayer
1
total_maxy
3
Standard
70
0
71
5
72
1
41
1.0
100
AcDbAlignedDimension
13
0.000000
23
0.000000
33
0.0
14
66.404218
24
0.000000
34
0.0
50
0.000000
100
AcDbRotatedDimension
0
DIMENSION
8
Layer_1
5
83
100
AcDbEntity
62
256
370
-1
6
ByLayer
1
Layer_1_width
3
Standard
70
0
71
5
72
1
41
1.0
100
AcDbAlignedDimension
13
0.136376
23
0.000000
33
0.0
14
78.530430
24
0.000000
34
0.0
50
0.000000
100
AcDbRotatedDimension
0
DIMENSION
8
Layer_1
5
83
100
AcDbEntity
62
256
370
-1
6
ByLayer
1
Layer_1_minx
3
Standard
70
0
71
5
72
1
41
1.0
100
AcDbAlignedDimension
13
0.136376
23
0.000000
33
0.0
14
0.000000
24
0.000000
34
0.0
50
0.000000
100
AcDbRotatedDimension
0
DIMENSION
8
Layer_1
5
83
100
AcDbEntity
62
256
370
-1
6
ByLayer
1
Layer_1_maxx
3
Standard
70
0
71
5
72
1
41
1.0
100
AcDbAlignedDimension
13
0.000000
23
0.000000
33
0.0
14
78.530430
24
0.000000
34
0.0
50
0.000000
100
AcDbRotatedDimension
0
DIMENSION
8
Layer_1
5
83
100
AcDbEntity
62
256
370
-1
6
ByLayer
1
Layer_1_height
3
Standard
70
0
71
5
72
1
41
1.0
100
AcDbAlignedDimension
13
0.000000
23
-0.240285
33
0.0
14
0.000000
24
66.404218
34
0.0
50
90.000000
100
AcDbRotatedDimension
0
DIMENSION
8
Layer_1
5
83
100
AcDbEntity
62
256
370
-1
6
ByLayer
1
Layer_1_miny
3
Standard
70
0
71
5
72
1
41
1.0
100
AcDbAlignedDimension
13
-0.240285
23
0.000000
33
0.0
14
0.000000
24
0.000000
34
0.0
50
0.000000
100
AcDbRotatedDimension
0
DIMENSION
8
Layer_1
5
83
100
AcDbEntity
62
256
370
-1
6
ByLayer
1
Layer_1_maxy
3
Standard
70
0
71
5
72
1
41
1.0
100
AcDbAlignedDimension
13
0.000000
23
0.000000
33
0.0
14
66.404218
24
0.000000
34
0.0
50
0.000000
100
AcDbRotatedDimension
62
0
0
LWPOLYLINE
100
AcDbPolyline
8
Layer_1
90
76
70
0
10
53.516601
20
-0.149962
30
0.0
10
50.839123
20
0.424006
30
0.0
10
48.499033
20
1.458383
30
0.0
10
46.579871
20
2.904517
30
0.0
10
45.804244
20
3.766788
30
0.0
10
45.165177
20
4.713755
30
0.0
10
44.541619
20
6.026923
30
0.0
10
44.047534
20
7.560531
30
0.0
10
43.684382
20
9.296711
30
0.0
10
43.453624
20
11.217592
30
0.0
10
43.395130
20
15.541983
30
0.0
10
43.883738
20
20.390753
30
0.0
10
44.785786
20
25.218795
30
0.0
10
46.158479
20
31.203356
30
0.0
10
47.815520
20
37.584104
30
0.0
10
49.570615
20
43.600708
30
0.0
10
50.518929
20
46.671286
30
0.0
10
51.151943
20
48.308090
30
0.0
10
51.868976
20
49.369888
30
0.0
10
52.586517
20
49.860588
30
0.0
10
53.423504
20
49.947737
30
0.0
10
53.881436
20
49.856154
30
0.0
10
54.236730
20
49.598727
30
0.0
10
54.560470
20
49.290308
30
0.0
10
54.504057
20
47.787072
30
0.0
10
53.944212
20
41.704176
30
0.0
10
50.681729
20
21.655109
30
0.0
10
50.489469
20
20.195836
30
0.0
10
50.444871
20
18.358753
30
0.0
10
50.477310
20
16.569065
30
0.0
10
50.684484
20
15.513953
30
0.0
10
51.498878
20
13.474054
30
0.0
10
52.036769
20
12.673440
30
0.0
10
52.651587
20
12.027921
30
0.0
10
53.335679
20
11.544149
30
0.0
10
54.081394
20
11.228778
30
0.0
10
54.881078
20
11.088460
30
0.0
10
55.727081
20
11.129848
30
0.0
10
57.963424
20
11.802694
30
0.0
10
60.162310
20
12.956294
30
0.0
10
61.079389
20
13.690640
30
0.0
10
61.995704
20
14.642597
30
0.0
10
63.756732
20
17.119069
30
0.0
10
65.608072
20
20.658923
30
0.0
10
67.476601
20
24.638838
30
0.0
10
69.961685
20
30.953822
30
0.0
10
72.570650
20
38.272353
30
0.0
10
74.412728
20
44.025990
30
0.0
10
76.128776
20
50.218208
30
0.0
10
76.485841
20
51.180792
30
0.0
10
76.879114
20
51.578036
30
0.0
10
77.308980
20
51.529379
30
0.0
10
77.592967
20
51.252083
30
0.0
10
77.858329
20
50.889959
30
0.0
10
78.177540
20
50.250212
30
0.0
10
78.402282
20
48.928439
30
0.0
10
78.530430
20
44.594131
30
0.0
10
78.246560
20
39.103239
30
0.0
10
77.625266
20
33.390956
30
0.0
10
76.695362
20
27.669683
30
0.0
10
75.485667
20
22.151820
30
0.0
10
74.446352
20
18.331507
30
0.0
10
73.352355
20
14.976961
30
0.0
10
72.181522
20
12.048758
30
0.0
10
70.911700
20
9.507477
30
0.0
10
69.520738
20
7.313695
30
0.0
10
67.986482
20
5.427989
30
0.0
10
66.286779
20
3.810938
30
0.0
10
64.399476
20
2.423118
30
0.0
10
62.504422
20
1.407930
30
0.0
10
60.499907
20
0.571689
30
0.0
10
58.818230
20
0.131608
30
0.0
10
57.022388
20
-0.142739
30
0.0
10
55.219479
20
-0.240285
30
0.0
10
53.516601
20
-0.149962
30
0.0
10
53.516601
20
-0.149962
30
0.0
62
0
0
LWPOLYLINE
100
AcDbPolyline
8
Layer_1
90
67
70
0
10
32.458313
20
-0.056072
30
0.0
10
29.608025
20
0.497211
30
0.0
10
24.194845
20
2.114525
30
0.0
10
12.389615
20
6.001070
30
0.0
10
4.299963
20
8.978031
30
0.0
10
2.829828
20
9.735942
30
0.0
10
1.738668
20
10.576507
30
0.0
10
0.949830
20
11.574699
30
0.0
10
0.386660
20
12.805486
30
0.0
10
0.180082
20
13.582458
30
0.0
10
0.136376
20
14.565686
30
0.0
10
0.179500
20
15.544596
30
0.0
10
0.379934
20
16.305849
30
0.0
10
0.795993
20
17.265703
30
0.0
10
1.289559
20
17.986923
30
0.0
10
11.370667
20
26.498505
30
0.0
10
19.634134
20
33.125577
30
0.0
10
27.942755
20
39.754334
30
0.0
10
30.242208
20
41.499381
30
0.0
10
31.123948
20
41.660919
30
0.0
10
32.003560
20
41.453252
30
0.0
10
32.531387
20
40.980373
30
0.0
10
32.839037
20
40.341576
30
0.0
10
32.898705
20
39.638442
30
0.0
10
32.682584
20
38.972550
30
0.0
10
26.542933
20
32.842756
30
0.0
10
15.681179
20
22.234635
30
0.0
10
13.863316
20
20.379036
30
0.0
10
13.319890
20
19.694596
30
0.0
10
13.107444
20
18.995603
30
0.0
10
13.134435
20
18.278950
30
0.0
10
13.390683
20
17.594984
30
0.0
10
13.866006
20
16.994053
30
0.0
10
14.932630
20
16.149614
30
0.0
10
16.609000
20
15.090510
30
0.0
10
22.704711
20
11.790355
30
0.0
10
28.661484
20
8.832026
30
0.0
10
29.662740
20
8.676661
30
0.0
10
30.455145
20
8.979224
30
0.0
10
31.095562
20
9.783647
30
0.0
10
31.640856
20
11.133864
30
0.0
10
32.102682
20
12.877700
30
0.0
10
32.717763
20
16.060745
30
0.0
10
34.347915
20
24.876802
30
0.0
10
40.626465
20
60.331531
30
0.0
10
41.616867
20
65.395114
30
0.0
10
42.173467
20
66.080347
30
0.0
10
42.776617
20
66.404218
30
0.0
10
43.553527
20
66.198159
30
0.0
10
44.349918
20
65.759654
30
0.0
10
44.706894
20
65.389565
30
0.0
10
44.824333
20
64.522536
30
0.0
10
44.334199
20
58.231108
30
0.0
10
42.844760
20
40.755909
30
0.0
10
42.392047
20
35.382398
30
0.0
10
41.855427
20
29.105775
30
0.0
10
41.400295
20
23.732264
30
0.0
10
40.359195
20
11.675731
30
0.0
10
39.951575
20
7.069864
30
0.0
10
39.644566
20
3.635886
30
0.0
10
39.355255
20
2.052437
30
0.0
10
38.651860
20
1.011795
30
0.0
10
37.797889
20
0.390751
30
0.0
10
36.659038
20
0.016713
30
0.0
10
34.646650
20
-0.105086
30
0.0
10
32.458324
20
-0.056072
30
0.0
10
32.458313
20
-0.056072
30
0.0
  0
ENDSEC
  0
SECTION
  2
OBJECTS
  0
DICTIONARY
  5
C
330
0
100
AcDbDictionary
  3
ACAD_GROUP
350
D
  3
ACAD_MLINESTYLE
350
17
  0
DICTIONARY
  5
D
330
C
100
AcDbDictionary
  0
DICTIONARY
  5
1A
330
C
100
AcDbDictionary
  0
DICTIONARY
  5
17
330
C
100
AcDbDictionary
  3
STANDARD
350
18
  0
DICTIONARY
  5
19
330
C
100
AcDbDictionary
  0
ENDSEC
  0
EOF
